<mxfile host="app.diagrams.net" agent="Mozilla/5.0 (Windows NT 10.0; Win64; x64) AppleWebKit/537.36 (KHTML, like Gecko) Chrome/131.0.0.0 Safari/537.36" version="25.0.3">
  <diagram name="第 1 页" id="33T3oQKg2jp4dK40noAK">
    <mxGraphModel dx="2049" dy="1054" grid="1" gridSize="10" guides="1" tooltips="1" connect="1" arrows="1" fold="1" page="1" pageScale="1" pageWidth="1169" pageHeight="1654" math="0" shadow="0">
      <root>
        <mxCell id="0" />
        <mxCell id="1" parent="0" />
        <mxCell id="R2j_WGsKVn8EYMGW6Qm4-13" style="edgeStyle=orthogonalEdgeStyle;rounded=0;orthogonalLoop=1;jettySize=auto;html=1;" parent="1" source="D-i1duRZGYbxX3AgBeWL-1" edge="1">
          <mxGeometry relative="1" as="geometry">
            <mxPoint x="115" y="100" as="targetPoint" />
          </mxGeometry>
        </mxCell>
        <mxCell id="R2j_WGsKVn8EYMGW6Qm4-34" style="edgeStyle=orthogonalEdgeStyle;rounded=0;orthogonalLoop=1;jettySize=auto;html=1;dashed=1;strokeColor=default;align=center;verticalAlign=middle;fontFamily=Times New Roman;fontSize=18;fontColor=default;labelBackgroundColor=default;endArrow=none;endFill=0;" parent="1" source="D-i1duRZGYbxX3AgBeWL-1" edge="1">
          <mxGeometry relative="1" as="geometry">
            <mxPoint x="50" y="359.9999999999998" as="targetPoint" />
          </mxGeometry>
        </mxCell>
        <mxCell id="D-i1duRZGYbxX3AgBeWL-1" value="" style="rounded=0;whiteSpace=wrap;html=1;fillColor=#ffff88;strokeColor=#36393d;" parent="1" vertex="1">
          <mxGeometry x="75" y="30" width="80" height="40" as="geometry" />
        </mxCell>
        <mxCell id="D-i1duRZGYbxX3AgBeWL-120" style="rounded=0;orthogonalLoop=1;jettySize=auto;html=1;exitX=0;exitY=1;exitDx=0;exitDy=0;fontFamily=Times New Roman;fontSize=18;fontColor=default;dashed=1;strokeColor=default;align=center;verticalAlign=middle;labelBackgroundColor=default;endArrow=none;endFill=0;" parent="1" edge="1">
          <mxGeometry relative="1" as="geometry">
            <mxPoint x="395" y="360" as="targetPoint" />
            <mxPoint x="395" y="320" as="sourcePoint" />
          </mxGeometry>
        </mxCell>
        <mxCell id="D-i1duRZGYbxX3AgBeWL-121" style="rounded=0;orthogonalLoop=1;jettySize=auto;html=1;exitX=0;exitY=1;exitDx=0;exitDy=0;fontFamily=Times New Roman;fontSize=18;fontColor=default;dashed=1;strokeColor=default;align=center;verticalAlign=middle;labelBackgroundColor=default;endArrow=none;endFill=0;" parent="1" edge="1">
          <mxGeometry relative="1" as="geometry">
            <mxPoint x="515" y="360" as="targetPoint" />
            <mxPoint x="515" y="320" as="sourcePoint" />
          </mxGeometry>
        </mxCell>
        <mxCell id="D-i1duRZGYbxX3AgBeWL-126" style="rounded=0;orthogonalLoop=1;jettySize=auto;html=1;exitX=1;exitY=0;exitDx=0;exitDy=0;fontFamily=Times New Roman;fontSize=18;fontColor=default;endArrow=none;endFill=0;dashed=1;" parent="1" edge="1">
          <mxGeometry relative="1" as="geometry">
            <mxPoint x="395" y="360" as="targetPoint" />
            <mxPoint x="115" y="430" as="sourcePoint" />
          </mxGeometry>
        </mxCell>
        <mxCell id="D-i1duRZGYbxX3AgBeWL-127" style="rounded=0;orthogonalLoop=1;jettySize=auto;html=1;exitX=0;exitY=0;exitDx=0;exitDy=0;fontFamily=Times New Roman;fontSize=18;fontColor=default;dashed=1;strokeColor=default;align=center;verticalAlign=middle;labelBackgroundColor=default;endArrow=none;endFill=0;" parent="1" edge="1">
          <mxGeometry relative="1" as="geometry">
            <mxPoint x="1075" y="360" as="targetPoint" />
            <mxPoint x="240" y="430" as="sourcePoint" />
          </mxGeometry>
        </mxCell>
        <mxCell id="D-i1duRZGYbxX3AgBeWL-128" style="rounded=0;orthogonalLoop=1;jettySize=auto;html=1;exitX=1;exitY=0;exitDx=0;exitDy=0;fontFamily=Times New Roman;fontSize=18;fontColor=default;dashed=1;strokeColor=default;align=center;verticalAlign=middle;labelBackgroundColor=default;endArrow=none;endFill=0;" parent="1" edge="1">
          <mxGeometry relative="1" as="geometry">
            <mxPoint x="610" y="360" as="targetPoint" />
            <mxPoint x="395" y="430" as="sourcePoint" />
          </mxGeometry>
        </mxCell>
        <mxCell id="D-i1duRZGYbxX3AgBeWL-129" style="rounded=0;orthogonalLoop=1;jettySize=auto;html=1;exitX=0;exitY=0;exitDx=0;exitDy=0;fontFamily=Times New Roman;fontSize=18;fontColor=default;dashed=1;strokeColor=default;align=center;verticalAlign=middle;labelBackgroundColor=default;endArrow=none;endFill=0;" parent="1" edge="1">
          <mxGeometry relative="1" as="geometry">
            <mxPoint x="295" y="360" as="targetPoint" />
            <mxPoint x="515" y="430" as="sourcePoint" />
          </mxGeometry>
        </mxCell>
        <mxCell id="D-i1duRZGYbxX3AgBeWL-130" style="rounded=0;orthogonalLoop=1;jettySize=auto;html=1;exitX=1;exitY=0;exitDx=0;exitDy=0;fontFamily=Times New Roman;fontSize=18;fontColor=default;dashed=1;strokeColor=default;align=center;verticalAlign=middle;labelBackgroundColor=default;endArrow=none;endFill=0;" parent="1" edge="1">
          <mxGeometry relative="1" as="geometry">
            <mxPoint x="955" y="360" as="targetPoint" />
            <mxPoint x="675" y="430" as="sourcePoint" />
          </mxGeometry>
        </mxCell>
        <mxCell id="D-i1duRZGYbxX3AgBeWL-131" style="rounded=0;orthogonalLoop=1;jettySize=auto;html=1;exitX=0;exitY=0;exitDx=0;exitDy=0;fontFamily=Times New Roman;fontSize=18;fontColor=default;dashed=1;strokeColor=default;align=center;verticalAlign=middle;labelBackgroundColor=default;endArrow=none;endFill=0;" parent="1" edge="1">
          <mxGeometry relative="1" as="geometry">
            <mxPoint x="515" y="360" as="targetPoint" />
            <mxPoint x="795" y="430" as="sourcePoint" />
          </mxGeometry>
        </mxCell>
        <mxCell id="D-i1duRZGYbxX3AgBeWL-132" style="rounded=0;orthogonalLoop=1;jettySize=auto;html=1;exitX=1;exitY=0;exitDx=0;exitDy=0;fontFamily=Times New Roman;fontSize=18;fontColor=default;dashed=1;strokeColor=default;align=center;verticalAlign=middle;labelBackgroundColor=default;endArrow=none;endFill=0;" parent="1" edge="1">
          <mxGeometry relative="1" as="geometry">
            <mxPoint x="55" y="360" as="targetPoint" />
            <mxPoint x="955" y="430" as="sourcePoint" />
          </mxGeometry>
        </mxCell>
        <mxCell id="D-i1duRZGYbxX3AgBeWL-133" style="rounded=0;orthogonalLoop=1;jettySize=auto;html=1;exitX=1;exitY=0;exitDx=0;exitDy=0;fontFamily=Times New Roman;fontSize=18;fontColor=default;dashed=1;strokeColor=default;align=center;verticalAlign=middle;labelBackgroundColor=default;endArrow=none;endFill=0;" parent="1" edge="1">
          <mxGeometry relative="1" as="geometry">
            <mxPoint x="855" y="360" as="targetPoint" />
            <mxPoint x="1075" y="430" as="sourcePoint" />
          </mxGeometry>
        </mxCell>
        <mxCell id="R2j_WGsKVn8EYMGW6Qm4-14" style="edgeStyle=orthogonalEdgeStyle;rounded=0;orthogonalLoop=1;jettySize=auto;html=1;" parent="1" source="R2j_WGsKVn8EYMGW6Qm4-2" edge="1">
          <mxGeometry relative="1" as="geometry">
            <mxPoint x="235" y="100" as="targetPoint" />
          </mxGeometry>
        </mxCell>
        <mxCell id="R2j_WGsKVn8EYMGW6Qm4-35" style="edgeStyle=orthogonalEdgeStyle;rounded=0;orthogonalLoop=1;jettySize=auto;html=1;dashed=1;strokeColor=default;align=center;verticalAlign=middle;fontFamily=Times New Roman;fontSize=18;fontColor=default;labelBackgroundColor=default;endArrow=none;endFill=0;" parent="1" source="R2j_WGsKVn8EYMGW6Qm4-2" edge="1">
          <mxGeometry relative="1" as="geometry">
            <mxPoint x="295" y="359.9999999999998" as="targetPoint" />
          </mxGeometry>
        </mxCell>
        <mxCell id="R2j_WGsKVn8EYMGW6Qm4-2" value="" style="rounded=0;whiteSpace=wrap;html=1;fillColor=#ffff88;strokeColor=#36393d;" parent="1" vertex="1">
          <mxGeometry x="195" y="30" width="80" height="40" as="geometry" />
        </mxCell>
        <mxCell id="R2j_WGsKVn8EYMGW6Qm4-20" style="edgeStyle=orthogonalEdgeStyle;rounded=0;orthogonalLoop=1;jettySize=auto;html=1;entryX=0.5;entryY=0;entryDx=0;entryDy=0;" parent="1" source="R2j_WGsKVn8EYMGW6Qm4-3" target="R2j_WGsKVn8EYMGW6Qm4-21" edge="1">
          <mxGeometry relative="1" as="geometry">
            <mxPoint x="390" y="250" as="targetPoint" />
          </mxGeometry>
        </mxCell>
        <mxCell id="R2j_WGsKVn8EYMGW6Qm4-3" value="" style="rounded=0;whiteSpace=wrap;html=1;fillColor=#ffff88;strokeColor=#36393d;" parent="1" vertex="1">
          <mxGeometry x="350" y="30" width="80" height="40" as="geometry" />
        </mxCell>
        <mxCell id="R2j_WGsKVn8EYMGW6Qm4-32" style="edgeStyle=orthogonalEdgeStyle;rounded=0;orthogonalLoop=1;jettySize=auto;html=1;entryX=0.5;entryY=0;entryDx=0;entryDy=0;" parent="1" source="R2j_WGsKVn8EYMGW6Qm4-4" target="R2j_WGsKVn8EYMGW6Qm4-29" edge="1">
          <mxGeometry relative="1" as="geometry" />
        </mxCell>
        <mxCell id="R2j_WGsKVn8EYMGW6Qm4-4" value="" style="rounded=0;whiteSpace=wrap;html=1;fillColor=#cdeb8b;strokeColor=#36393d;" parent="1" vertex="1">
          <mxGeometry x="475" y="30" width="80" height="40" as="geometry" />
        </mxCell>
        <mxCell id="R2j_WGsKVn8EYMGW6Qm4-5" value="&lt;font face=&quot;Lucida Console&quot; style=&quot;font-size: 32px;&quot;&gt;F&lt;/font&gt;" style="rounded=1;whiteSpace=wrap;html=1;" parent="1" vertex="1">
          <mxGeometry x="75" y="100" width="200" height="70" as="geometry" />
        </mxCell>
        <mxCell id="R2j_WGsKVn8EYMGW6Qm4-15" style="edgeStyle=orthogonalEdgeStyle;rounded=0;orthogonalLoop=1;jettySize=auto;html=1;startArrow=classic;startFill=1;endArrow=none;endFill=0;" parent="1" source="R2j_WGsKVn8EYMGW6Qm4-8" edge="1">
          <mxGeometry relative="1" as="geometry">
            <mxPoint x="115" y="170" as="targetPoint" />
          </mxGeometry>
        </mxCell>
        <mxCell id="R2j_WGsKVn8EYMGW6Qm4-26" style="edgeStyle=orthogonalEdgeStyle;rounded=0;orthogonalLoop=1;jettySize=auto;html=1;entryX=0;entryY=0.5;entryDx=0;entryDy=0;" parent="1" target="R2j_WGsKVn8EYMGW6Qm4-21" edge="1">
          <mxGeometry relative="1" as="geometry">
            <mxPoint x="115" y="240" as="sourcePoint" />
            <mxPoint x="310" y="300" as="targetPoint" />
            <Array as="points">
              <mxPoint x="115" y="300" />
            </Array>
          </mxGeometry>
        </mxCell>
        <mxCell id="R2j_WGsKVn8EYMGW6Qm4-8" value="" style="rounded=0;whiteSpace=wrap;html=1;fillColor=#ffff88;strokeColor=#36393d;" parent="1" vertex="1">
          <mxGeometry x="75" y="200" width="80" height="40" as="geometry" />
        </mxCell>
        <mxCell id="R2j_WGsKVn8EYMGW6Qm4-31" style="edgeStyle=orthogonalEdgeStyle;rounded=0;orthogonalLoop=1;jettySize=auto;html=1;" parent="1" source="R2j_WGsKVn8EYMGW6Qm4-19" edge="1">
          <mxGeometry relative="1" as="geometry">
            <mxPoint x="515" y="220" as="targetPoint" />
          </mxGeometry>
        </mxCell>
        <mxCell id="R2j_WGsKVn8EYMGW6Qm4-19" value="" style="rounded=0;whiteSpace=wrap;html=1;fillColor=#ffff88;strokeColor=#36393d;" parent="1" vertex="1">
          <mxGeometry x="195" y="200" width="80" height="40" as="geometry" />
        </mxCell>
        <mxCell id="R2j_WGsKVn8EYMGW6Qm4-21" value="" style="rounded=0;whiteSpace=wrap;html=1;fillColor=#ffff88;strokeColor=#36393d;" parent="1" vertex="1">
          <mxGeometry x="350" y="280" width="80" height="40" as="geometry" />
        </mxCell>
        <mxCell id="R2j_WGsKVn8EYMGW6Qm4-27" style="edgeStyle=orthogonalEdgeStyle;rounded=0;orthogonalLoop=1;jettySize=auto;html=1;" parent="1" source="R2j_WGsKVn8EYMGW6Qm4-23" edge="1">
          <mxGeometry relative="1" as="geometry">
            <mxPoint x="390" y="135" as="targetPoint" />
          </mxGeometry>
        </mxCell>
        <mxCell id="R2j_WGsKVn8EYMGW6Qm4-23" value="&lt;font style=&quot;font-size: 16px;&quot;&gt;&amp;nbsp;rk&lt;sub&gt;6&lt;/sub&gt;[0-7]&lt;/font&gt;" style="text;html=1;align=center;verticalAlign=middle;whiteSpace=wrap;rounded=0;fillColor=#ffcccc;strokeColor=#36393d;" parent="1" vertex="1">
          <mxGeometry x="310" y="120" width="60" height="30" as="geometry" />
        </mxCell>
        <mxCell id="R2j_WGsKVn8EYMGW6Qm4-33" style="edgeStyle=orthogonalEdgeStyle;rounded=0;orthogonalLoop=1;jettySize=auto;html=1;" parent="1" source="R2j_WGsKVn8EYMGW6Qm4-28" edge="1">
          <mxGeometry relative="1" as="geometry">
            <mxPoint x="515" y="135" as="targetPoint" />
          </mxGeometry>
        </mxCell>
        <mxCell id="R2j_WGsKVn8EYMGW6Qm4-28" value="&lt;font style=&quot;font-size: 16px;&quot;&gt;&amp;nbsp;rk&lt;sub&gt;6&lt;/sub&gt;[8-15]&lt;/font&gt;" style="text;html=1;align=center;verticalAlign=middle;whiteSpace=wrap;rounded=0;fillColor=#cdeb8b;strokeColor=#36393d;" parent="1" vertex="1">
          <mxGeometry x="420" y="120" width="75" height="30" as="geometry" />
        </mxCell>
        <mxCell id="R2j_WGsKVn8EYMGW6Qm4-29" value="" style="rounded=0;whiteSpace=wrap;html=1;fillColor=#ffcccc;strokeColor=#36393d;" parent="1" vertex="1">
          <mxGeometry x="475" y="280" width="80" height="40" as="geometry" />
        </mxCell>
        <mxCell id="R2j_WGsKVn8EYMGW6Qm4-36" value="" style="rounded=0;whiteSpace=wrap;html=1;fillColor=#ffff88;strokeColor=#36393d;" parent="1" vertex="1">
          <mxGeometry x="75" y="430" width="80" height="40" as="geometry" />
        </mxCell>
        <mxCell id="R2j_WGsKVn8EYMGW6Qm4-37" value="" style="rounded=0;whiteSpace=wrap;html=1;fillColor=#ffcccc;strokeColor=#36393d;" parent="1" vertex="1">
          <mxGeometry x="195" y="430" width="80" height="40" as="geometry" />
        </mxCell>
        <mxCell id="R2j_WGsKVn8EYMGW6Qm4-38" value="" style="rounded=0;whiteSpace=wrap;html=1;fillColor=#ffcccc;strokeColor=#36393d;" parent="1" vertex="1">
          <mxGeometry x="350" y="430" width="80" height="40" as="geometry" />
        </mxCell>
        <mxCell id="R2j_WGsKVn8EYMGW6Qm4-39" value="" style="rounded=0;whiteSpace=wrap;html=1;fillColor=#ffcccc;strokeColor=#36393d;" parent="1" vertex="1">
          <mxGeometry x="475" y="430" width="80" height="40" as="geometry" />
        </mxCell>
        <mxCell id="R2j_WGsKVn8EYMGW6Qm4-73" style="edgeStyle=orthogonalEdgeStyle;rounded=0;orthogonalLoop=1;jettySize=auto;html=1;startArrow=classic;startFill=1;endArrow=none;endFill=0;" parent="1" edge="1">
          <mxGeometry relative="1" as="geometry">
            <mxPoint x="234.58" y="170" as="targetPoint" />
            <mxPoint x="234.58" y="200" as="sourcePoint" />
          </mxGeometry>
        </mxCell>
        <mxCell id="R2j_WGsKVn8EYMGW6Qm4-78" style="edgeStyle=orthogonalEdgeStyle;rounded=0;orthogonalLoop=1;jettySize=auto;html=1;" parent="1" source="R2j_WGsKVn8EYMGW6Qm4-80" edge="1">
          <mxGeometry relative="1" as="geometry">
            <mxPoint x="675" y="100" as="targetPoint" />
          </mxGeometry>
        </mxCell>
        <mxCell id="R2j_WGsKVn8EYMGW6Qm4-79" style="edgeStyle=orthogonalEdgeStyle;rounded=0;orthogonalLoop=1;jettySize=auto;html=1;dashed=1;strokeColor=default;align=center;verticalAlign=middle;fontFamily=Times New Roman;fontSize=18;fontColor=default;labelBackgroundColor=default;endArrow=none;endFill=0;" parent="1" source="R2j_WGsKVn8EYMGW6Qm4-80" edge="1">
          <mxGeometry relative="1" as="geometry">
            <mxPoint x="610" y="359.9999999999998" as="targetPoint" />
          </mxGeometry>
        </mxCell>
        <mxCell id="R2j_WGsKVn8EYMGW6Qm4-80" value="" style="rounded=0;whiteSpace=wrap;html=1;fillColor=#ffff88;strokeColor=#36393d;" parent="1" vertex="1">
          <mxGeometry x="635" y="30" width="80" height="40" as="geometry" />
        </mxCell>
        <mxCell id="R2j_WGsKVn8EYMGW6Qm4-81" style="rounded=0;orthogonalLoop=1;jettySize=auto;html=1;exitX=0;exitY=1;exitDx=0;exitDy=0;fontFamily=Times New Roman;fontSize=18;fontColor=default;dashed=1;strokeColor=default;align=center;verticalAlign=middle;labelBackgroundColor=default;endArrow=none;endFill=0;" parent="1" edge="1">
          <mxGeometry relative="1" as="geometry">
            <mxPoint x="955" y="360" as="targetPoint" />
            <mxPoint x="955" y="320" as="sourcePoint" />
          </mxGeometry>
        </mxCell>
        <mxCell id="R2j_WGsKVn8EYMGW6Qm4-82" style="rounded=0;orthogonalLoop=1;jettySize=auto;html=1;exitX=0;exitY=1;exitDx=0;exitDy=0;fontFamily=Times New Roman;fontSize=18;fontColor=default;dashed=1;strokeColor=default;align=center;verticalAlign=middle;labelBackgroundColor=default;endArrow=none;endFill=0;" parent="1" edge="1">
          <mxGeometry relative="1" as="geometry">
            <mxPoint x="1075" y="360" as="targetPoint" />
            <mxPoint x="1075" y="320" as="sourcePoint" />
          </mxGeometry>
        </mxCell>
        <mxCell id="R2j_WGsKVn8EYMGW6Qm4-83" style="edgeStyle=orthogonalEdgeStyle;rounded=0;orthogonalLoop=1;jettySize=auto;html=1;" parent="1" source="R2j_WGsKVn8EYMGW6Qm4-85" edge="1">
          <mxGeometry relative="1" as="geometry">
            <mxPoint x="795" y="100" as="targetPoint" />
          </mxGeometry>
        </mxCell>
        <mxCell id="R2j_WGsKVn8EYMGW6Qm4-84" style="edgeStyle=orthogonalEdgeStyle;rounded=0;orthogonalLoop=1;jettySize=auto;html=1;dashed=1;strokeColor=default;align=center;verticalAlign=middle;fontFamily=Times New Roman;fontSize=18;fontColor=default;labelBackgroundColor=default;endArrow=none;endFill=0;" parent="1" source="R2j_WGsKVn8EYMGW6Qm4-85" edge="1">
          <mxGeometry relative="1" as="geometry">
            <mxPoint x="855" y="359.9999999999998" as="targetPoint" />
          </mxGeometry>
        </mxCell>
        <mxCell id="R2j_WGsKVn8EYMGW6Qm4-85" value="" style="rounded=0;whiteSpace=wrap;html=1;fillColor=#ffff88;strokeColor=#36393d;" parent="1" vertex="1">
          <mxGeometry x="755" y="30" width="80" height="40" as="geometry" />
        </mxCell>
        <mxCell id="R2j_WGsKVn8EYMGW6Qm4-86" style="edgeStyle=orthogonalEdgeStyle;rounded=0;orthogonalLoop=1;jettySize=auto;html=1;entryX=0.5;entryY=0;entryDx=0;entryDy=0;" parent="1" source="R2j_WGsKVn8EYMGW6Qm4-87" target="R2j_WGsKVn8EYMGW6Qm4-96" edge="1">
          <mxGeometry relative="1" as="geometry">
            <mxPoint x="950" y="250" as="targetPoint" />
          </mxGeometry>
        </mxCell>
        <mxCell id="R2j_WGsKVn8EYMGW6Qm4-87" value="" style="rounded=0;whiteSpace=wrap;html=1;fillColor=#ffff88;strokeColor=#36393d;" parent="1" vertex="1">
          <mxGeometry x="910" y="30" width="80" height="40" as="geometry" />
        </mxCell>
        <mxCell id="R2j_WGsKVn8EYMGW6Qm4-88" style="edgeStyle=orthogonalEdgeStyle;rounded=0;orthogonalLoop=1;jettySize=auto;html=1;entryX=0.5;entryY=0;entryDx=0;entryDy=0;" parent="1" source="R2j_WGsKVn8EYMGW6Qm4-89" target="R2j_WGsKVn8EYMGW6Qm4-101" edge="1">
          <mxGeometry relative="1" as="geometry" />
        </mxCell>
        <mxCell id="R2j_WGsKVn8EYMGW6Qm4-89" value="" style="rounded=0;whiteSpace=wrap;html=1;fillColor=#ffff88;strokeColor=#36393d;" parent="1" vertex="1">
          <mxGeometry x="1035" y="30" width="80" height="40" as="geometry" />
        </mxCell>
        <mxCell id="R2j_WGsKVn8EYMGW6Qm4-90" value="&lt;font face=&quot;Lucida Console&quot; style=&quot;font-size: 32px;&quot;&gt;F&lt;/font&gt;" style="rounded=1;whiteSpace=wrap;html=1;" parent="1" vertex="1">
          <mxGeometry x="635" y="100" width="200" height="70" as="geometry" />
        </mxCell>
        <mxCell id="R2j_WGsKVn8EYMGW6Qm4-91" style="edgeStyle=orthogonalEdgeStyle;rounded=0;orthogonalLoop=1;jettySize=auto;html=1;startArrow=classic;startFill=1;endArrow=none;endFill=0;" parent="1" source="R2j_WGsKVn8EYMGW6Qm4-93" edge="1">
          <mxGeometry relative="1" as="geometry">
            <mxPoint x="675" y="170" as="targetPoint" />
          </mxGeometry>
        </mxCell>
        <mxCell id="R2j_WGsKVn8EYMGW6Qm4-92" style="edgeStyle=orthogonalEdgeStyle;rounded=0;orthogonalLoop=1;jettySize=auto;html=1;entryX=0;entryY=0.5;entryDx=0;entryDy=0;" parent="1" target="R2j_WGsKVn8EYMGW6Qm4-96" edge="1">
          <mxGeometry relative="1" as="geometry">
            <mxPoint x="675" y="240" as="sourcePoint" />
            <mxPoint x="870" y="300" as="targetPoint" />
            <Array as="points">
              <mxPoint x="675" y="300" />
            </Array>
          </mxGeometry>
        </mxCell>
        <mxCell id="R2j_WGsKVn8EYMGW6Qm4-93" value="" style="rounded=0;whiteSpace=wrap;html=1;fillColor=#ffff88;strokeColor=#36393d;" parent="1" vertex="1">
          <mxGeometry x="635" y="200" width="80" height="40" as="geometry" />
        </mxCell>
        <mxCell id="R2j_WGsKVn8EYMGW6Qm4-94" style="edgeStyle=orthogonalEdgeStyle;rounded=0;orthogonalLoop=1;jettySize=auto;html=1;" parent="1" source="R2j_WGsKVn8EYMGW6Qm4-95" edge="1">
          <mxGeometry relative="1" as="geometry">
            <mxPoint x="1075" y="220" as="targetPoint" />
          </mxGeometry>
        </mxCell>
        <mxCell id="R2j_WGsKVn8EYMGW6Qm4-95" value="" style="rounded=0;whiteSpace=wrap;html=1;fillColor=#ffff88;strokeColor=#36393d;" parent="1" vertex="1">
          <mxGeometry x="755" y="200" width="80" height="40" as="geometry" />
        </mxCell>
        <mxCell id="R2j_WGsKVn8EYMGW6Qm4-96" value="" style="rounded=0;whiteSpace=wrap;html=1;fillColor=#ffcccc;strokeColor=#36393d;" parent="1" vertex="1">
          <mxGeometry x="910" y="280" width="80" height="40" as="geometry" />
        </mxCell>
        <mxCell id="R2j_WGsKVn8EYMGW6Qm4-97" style="edgeStyle=orthogonalEdgeStyle;rounded=0;orthogonalLoop=1;jettySize=auto;html=1;" parent="1" source="R2j_WGsKVn8EYMGW6Qm4-98" edge="1">
          <mxGeometry relative="1" as="geometry">
            <mxPoint x="950" y="135" as="targetPoint" />
          </mxGeometry>
        </mxCell>
        <mxCell id="R2j_WGsKVn8EYMGW6Qm4-98" value="&lt;font style=&quot;font-size: 16px;&quot;&gt;&amp;nbsp;rk&lt;sub&gt;1&lt;/sub&gt;[0-7]&lt;/font&gt;" style="text;html=1;align=center;verticalAlign=middle;whiteSpace=wrap;rounded=0;fillColor=#ffcccc;strokeColor=#36393d;" parent="1" vertex="1">
          <mxGeometry x="870" y="120" width="60" height="30" as="geometry" />
        </mxCell>
        <mxCell id="R2j_WGsKVn8EYMGW6Qm4-99" style="edgeStyle=orthogonalEdgeStyle;rounded=0;orthogonalLoop=1;jettySize=auto;html=1;" parent="1" source="R2j_WGsKVn8EYMGW6Qm4-100" edge="1">
          <mxGeometry relative="1" as="geometry">
            <mxPoint x="1075" y="135" as="targetPoint" />
          </mxGeometry>
        </mxCell>
        <mxCell id="R2j_WGsKVn8EYMGW6Qm4-100" value="&lt;font style=&quot;font-size: 16px;&quot;&gt;&amp;nbsp;rk&lt;sub&gt;1&lt;/sub&gt;[8-15]&lt;/font&gt;" style="text;html=1;align=center;verticalAlign=middle;whiteSpace=wrap;rounded=0;fillColor=#ffcccc;strokeColor=#36393d;" parent="1" vertex="1">
          <mxGeometry x="980" y="120" width="75" height="30" as="geometry" />
        </mxCell>
        <mxCell id="R2j_WGsKVn8EYMGW6Qm4-101" value="" style="rounded=0;whiteSpace=wrap;html=1;fillColor=#ffcccc;strokeColor=#36393d;" parent="1" vertex="1">
          <mxGeometry x="1035" y="280" width="80" height="40" as="geometry" />
        </mxCell>
        <mxCell id="R2j_WGsKVn8EYMGW6Qm4-102" style="edgeStyle=orthogonalEdgeStyle;rounded=0;orthogonalLoop=1;jettySize=auto;html=1;startArrow=classic;startFill=1;endArrow=none;endFill=0;" parent="1" edge="1">
          <mxGeometry relative="1" as="geometry">
            <mxPoint x="794.58" y="170" as="targetPoint" />
            <mxPoint x="794.58" y="200" as="sourcePoint" />
          </mxGeometry>
        </mxCell>
        <mxCell id="R2j_WGsKVn8EYMGW6Qm4-103" value="" style="rounded=0;whiteSpace=wrap;html=1;fillColor=#ffcccc;strokeColor=#36393d;" parent="1" vertex="1">
          <mxGeometry x="635" y="430" width="80" height="40" as="geometry" />
        </mxCell>
        <mxCell id="R2j_WGsKVn8EYMGW6Qm4-104" value="" style="rounded=0;whiteSpace=wrap;html=1;fillColor=#ffcccc;strokeColor=#36393d;" parent="1" vertex="1">
          <mxGeometry x="755" y="430" width="80" height="40" as="geometry" />
        </mxCell>
        <mxCell id="R2j_WGsKVn8EYMGW6Qm4-105" value="" style="rounded=0;whiteSpace=wrap;html=1;fillColor=#ffcccc;strokeColor=#36393d;" parent="1" vertex="1">
          <mxGeometry x="910" y="430" width="80" height="40" as="geometry" />
        </mxCell>
        <mxCell id="R2j_WGsKVn8EYMGW6Qm4-106" value="" style="rounded=0;whiteSpace=wrap;html=1;fillColor=#ffcccc;strokeColor=#36393d;" parent="1" vertex="1">
          <mxGeometry x="1035" y="430" width="80" height="40" as="geometry" />
        </mxCell>
        <mxCell id="R2j_WGsKVn8EYMGW6Qm4-158" style="edgeStyle=orthogonalEdgeStyle;rounded=0;orthogonalLoop=1;jettySize=auto;html=1;" parent="1" edge="1">
          <mxGeometry relative="1" as="geometry">
            <mxPoint x="115" y="500" as="targetPoint" />
            <mxPoint x="115" y="470" as="sourcePoint" />
          </mxGeometry>
        </mxCell>
        <mxCell id="R2j_WGsKVn8EYMGW6Qm4-159" style="edgeStyle=orthogonalEdgeStyle;rounded=0;orthogonalLoop=1;jettySize=auto;html=1;dashed=1;strokeColor=default;align=center;verticalAlign=middle;fontFamily=Times New Roman;fontSize=18;fontColor=default;labelBackgroundColor=default;endArrow=none;endFill=0;" parent="1" edge="1">
          <mxGeometry relative="1" as="geometry">
            <mxPoint x="50" y="759.9999999999998" as="targetPoint" />
            <mxPoint x="75" y="450" as="sourcePoint" />
          </mxGeometry>
        </mxCell>
        <mxCell id="R2j_WGsKVn8EYMGW6Qm4-160" style="rounded=0;orthogonalLoop=1;jettySize=auto;html=1;exitX=0;exitY=1;exitDx=0;exitDy=0;fontFamily=Times New Roman;fontSize=18;fontColor=default;dashed=1;strokeColor=default;align=center;verticalAlign=middle;labelBackgroundColor=default;endArrow=none;endFill=0;" parent="1" edge="1">
          <mxGeometry relative="1" as="geometry">
            <mxPoint x="395" y="760" as="targetPoint" />
            <mxPoint x="395" y="720" as="sourcePoint" />
          </mxGeometry>
        </mxCell>
        <mxCell id="R2j_WGsKVn8EYMGW6Qm4-161" style="rounded=0;orthogonalLoop=1;jettySize=auto;html=1;exitX=0;exitY=1;exitDx=0;exitDy=0;fontFamily=Times New Roman;fontSize=18;fontColor=default;dashed=1;strokeColor=default;align=center;verticalAlign=middle;labelBackgroundColor=default;endArrow=none;endFill=0;" parent="1" edge="1">
          <mxGeometry relative="1" as="geometry">
            <mxPoint x="515" y="760" as="targetPoint" />
            <mxPoint x="515" y="720" as="sourcePoint" />
          </mxGeometry>
        </mxCell>
        <mxCell id="R2j_WGsKVn8EYMGW6Qm4-170" style="edgeStyle=orthogonalEdgeStyle;rounded=0;orthogonalLoop=1;jettySize=auto;html=1;" parent="1" edge="1">
          <mxGeometry relative="1" as="geometry">
            <mxPoint x="235" y="500" as="targetPoint" />
            <mxPoint x="235" y="470" as="sourcePoint" />
          </mxGeometry>
        </mxCell>
        <mxCell id="R2j_WGsKVn8EYMGW6Qm4-171" style="edgeStyle=orthogonalEdgeStyle;rounded=0;orthogonalLoop=1;jettySize=auto;html=1;dashed=1;strokeColor=default;align=center;verticalAlign=middle;fontFamily=Times New Roman;fontSize=18;fontColor=default;labelBackgroundColor=default;endArrow=none;endFill=0;" parent="1" edge="1">
          <mxGeometry relative="1" as="geometry">
            <mxPoint x="295" y="759.9999999999998" as="targetPoint" />
            <mxPoint x="275" y="450" as="sourcePoint" />
          </mxGeometry>
        </mxCell>
        <mxCell id="R2j_WGsKVn8EYMGW6Qm4-172" style="edgeStyle=orthogonalEdgeStyle;rounded=0;orthogonalLoop=1;jettySize=auto;html=1;entryX=0.5;entryY=0;entryDx=0;entryDy=0;" parent="1" target="R2j_WGsKVn8EYMGW6Qm4-180" edge="1">
          <mxGeometry relative="1" as="geometry">
            <mxPoint x="390" y="650" as="targetPoint" />
            <mxPoint x="390" y="470" as="sourcePoint" />
          </mxGeometry>
        </mxCell>
        <mxCell id="R2j_WGsKVn8EYMGW6Qm4-173" style="edgeStyle=orthogonalEdgeStyle;rounded=0;orthogonalLoop=1;jettySize=auto;html=1;entryX=0.5;entryY=0;entryDx=0;entryDy=0;" parent="1" target="R2j_WGsKVn8EYMGW6Qm4-185" edge="1">
          <mxGeometry relative="1" as="geometry">
            <mxPoint x="515" y="470" as="sourcePoint" />
          </mxGeometry>
        </mxCell>
        <mxCell id="R2j_WGsKVn8EYMGW6Qm4-174" value="&lt;font face=&quot;Lucida Console&quot; style=&quot;font-size: 32px;&quot;&gt;F&lt;/font&gt;" style="rounded=1;whiteSpace=wrap;html=1;" parent="1" vertex="1">
          <mxGeometry x="75" y="500" width="200" height="70" as="geometry" />
        </mxCell>
        <mxCell id="R2j_WGsKVn8EYMGW6Qm4-175" style="edgeStyle=orthogonalEdgeStyle;rounded=0;orthogonalLoop=1;jettySize=auto;html=1;startArrow=classic;startFill=1;endArrow=none;endFill=0;" parent="1" source="R2j_WGsKVn8EYMGW6Qm4-177" edge="1">
          <mxGeometry relative="1" as="geometry">
            <mxPoint x="115" y="570" as="targetPoint" />
          </mxGeometry>
        </mxCell>
        <mxCell id="R2j_WGsKVn8EYMGW6Qm4-176" style="edgeStyle=orthogonalEdgeStyle;rounded=0;orthogonalLoop=1;jettySize=auto;html=1;entryX=0;entryY=0.5;entryDx=0;entryDy=0;" parent="1" target="R2j_WGsKVn8EYMGW6Qm4-180" edge="1">
          <mxGeometry relative="1" as="geometry">
            <mxPoint x="115" y="640" as="sourcePoint" />
            <mxPoint x="310" y="700" as="targetPoint" />
            <Array as="points">
              <mxPoint x="115" y="700" />
            </Array>
          </mxGeometry>
        </mxCell>
        <mxCell id="R2j_WGsKVn8EYMGW6Qm4-177" value="" style="rounded=0;whiteSpace=wrap;html=1;fillColor=#ffcccc;strokeColor=#36393d;" parent="1" vertex="1">
          <mxGeometry x="75" y="600" width="80" height="40" as="geometry" />
        </mxCell>
        <mxCell id="R2j_WGsKVn8EYMGW6Qm4-178" style="edgeStyle=orthogonalEdgeStyle;rounded=0;orthogonalLoop=1;jettySize=auto;html=1;" parent="1" source="R2j_WGsKVn8EYMGW6Qm4-179" edge="1">
          <mxGeometry relative="1" as="geometry">
            <mxPoint x="515" y="620" as="targetPoint" />
          </mxGeometry>
        </mxCell>
        <mxCell id="R2j_WGsKVn8EYMGW6Qm4-179" value="" style="rounded=0;whiteSpace=wrap;html=1;fillColor=#ffcccc;strokeColor=#36393d;" parent="1" vertex="1">
          <mxGeometry x="195" y="600" width="80" height="40" as="geometry" />
        </mxCell>
        <mxCell id="R2j_WGsKVn8EYMGW6Qm4-180" value="" style="rounded=0;whiteSpace=wrap;html=1;fillColor=#ffcccc;strokeColor=#36393d;" parent="1" vertex="1">
          <mxGeometry x="350" y="680" width="80" height="40" as="geometry" />
        </mxCell>
        <mxCell id="R2j_WGsKVn8EYMGW6Qm4-181" style="edgeStyle=orthogonalEdgeStyle;rounded=0;orthogonalLoop=1;jettySize=auto;html=1;" parent="1" source="R2j_WGsKVn8EYMGW6Qm4-182" edge="1">
          <mxGeometry relative="1" as="geometry">
            <mxPoint x="390" y="535" as="targetPoint" />
          </mxGeometry>
        </mxCell>
        <mxCell id="R2j_WGsKVn8EYMGW6Qm4-182" value="&lt;font style=&quot;font-size: 16px;&quot;&gt;&amp;nbsp;rk&lt;sub&gt;4&lt;/sub&gt;[0-7]&lt;/font&gt;" style="text;html=1;align=center;verticalAlign=middle;whiteSpace=wrap;rounded=0;fillColor=#ffff88;strokeColor=#36393d;" parent="1" vertex="1">
          <mxGeometry x="310" y="520" width="60" height="30" as="geometry" />
        </mxCell>
        <mxCell id="R2j_WGsKVn8EYMGW6Qm4-183" style="edgeStyle=orthogonalEdgeStyle;rounded=0;orthogonalLoop=1;jettySize=auto;html=1;" parent="1" source="R2j_WGsKVn8EYMGW6Qm4-184" edge="1">
          <mxGeometry relative="1" as="geometry">
            <mxPoint x="515" y="535" as="targetPoint" />
          </mxGeometry>
        </mxCell>
        <mxCell id="R2j_WGsKVn8EYMGW6Qm4-184" value="&lt;font style=&quot;font-size: 16px;&quot;&gt;&amp;nbsp;rk&lt;sub&gt;4&lt;/sub&gt;[8-15]&lt;/font&gt;" style="text;html=1;align=center;verticalAlign=middle;whiteSpace=wrap;rounded=0;fillColor=#ffff88;strokeColor=#36393d;" parent="1" vertex="1">
          <mxGeometry x="420" y="520" width="75" height="30" as="geometry" />
        </mxCell>
        <mxCell id="R2j_WGsKVn8EYMGW6Qm4-185" value="" style="rounded=0;whiteSpace=wrap;html=1;fillColor=#ffcccc;strokeColor=#36393d;" parent="1" vertex="1">
          <mxGeometry x="475" y="680" width="80" height="40" as="geometry" />
        </mxCell>
        <mxCell id="R2j_WGsKVn8EYMGW6Qm4-190" style="edgeStyle=orthogonalEdgeStyle;rounded=0;orthogonalLoop=1;jettySize=auto;html=1;startArrow=classic;startFill=1;endArrow=none;endFill=0;" parent="1" edge="1">
          <mxGeometry relative="1" as="geometry">
            <mxPoint x="234.58" y="570" as="targetPoint" />
            <mxPoint x="234.58" y="600" as="sourcePoint" />
          </mxGeometry>
        </mxCell>
        <mxCell id="R2j_WGsKVn8EYMGW6Qm4-191" style="edgeStyle=orthogonalEdgeStyle;rounded=0;orthogonalLoop=1;jettySize=auto;html=1;" parent="1" edge="1">
          <mxGeometry relative="1" as="geometry">
            <mxPoint x="675" y="500" as="targetPoint" />
            <mxPoint x="675" y="470" as="sourcePoint" />
          </mxGeometry>
        </mxCell>
        <mxCell id="R2j_WGsKVn8EYMGW6Qm4-192" style="edgeStyle=orthogonalEdgeStyle;rounded=0;orthogonalLoop=1;jettySize=auto;html=1;dashed=1;strokeColor=default;align=center;verticalAlign=middle;fontFamily=Times New Roman;fontSize=18;fontColor=default;labelBackgroundColor=default;endArrow=none;endFill=0;" parent="1" edge="1">
          <mxGeometry relative="1" as="geometry">
            <mxPoint x="610" y="759.9999999999998" as="targetPoint" />
            <mxPoint x="635" y="450" as="sourcePoint" />
          </mxGeometry>
        </mxCell>
        <mxCell id="R2j_WGsKVn8EYMGW6Qm4-193" style="rounded=0;orthogonalLoop=1;jettySize=auto;html=1;exitX=0;exitY=1;exitDx=0;exitDy=0;fontFamily=Times New Roman;fontSize=18;fontColor=default;dashed=1;strokeColor=default;align=center;verticalAlign=middle;labelBackgroundColor=default;endArrow=none;endFill=0;" parent="1" edge="1">
          <mxGeometry relative="1" as="geometry">
            <mxPoint x="955" y="760" as="targetPoint" />
            <mxPoint x="955" y="720" as="sourcePoint" />
          </mxGeometry>
        </mxCell>
        <mxCell id="R2j_WGsKVn8EYMGW6Qm4-194" style="rounded=0;orthogonalLoop=1;jettySize=auto;html=1;exitX=0;exitY=1;exitDx=0;exitDy=0;fontFamily=Times New Roman;fontSize=18;fontColor=default;dashed=1;strokeColor=default;align=center;verticalAlign=middle;labelBackgroundColor=default;endArrow=none;endFill=0;" parent="1" edge="1">
          <mxGeometry relative="1" as="geometry">
            <mxPoint x="1075" y="760" as="targetPoint" />
            <mxPoint x="1075" y="720" as="sourcePoint" />
          </mxGeometry>
        </mxCell>
        <mxCell id="R2j_WGsKVn8EYMGW6Qm4-195" style="edgeStyle=orthogonalEdgeStyle;rounded=0;orthogonalLoop=1;jettySize=auto;html=1;" parent="1" edge="1">
          <mxGeometry relative="1" as="geometry">
            <mxPoint x="795" y="500" as="targetPoint" />
            <mxPoint x="795" y="470" as="sourcePoint" />
          </mxGeometry>
        </mxCell>
        <mxCell id="R2j_WGsKVn8EYMGW6Qm4-196" style="edgeStyle=orthogonalEdgeStyle;rounded=0;orthogonalLoop=1;jettySize=auto;html=1;dashed=1;strokeColor=default;align=center;verticalAlign=middle;fontFamily=Times New Roman;fontSize=18;fontColor=default;labelBackgroundColor=default;endArrow=none;endFill=0;" parent="1" edge="1">
          <mxGeometry relative="1" as="geometry">
            <mxPoint x="855" y="759.9999999999998" as="targetPoint" />
            <mxPoint x="835" y="450" as="sourcePoint" />
          </mxGeometry>
        </mxCell>
        <mxCell id="R2j_WGsKVn8EYMGW6Qm4-197" style="edgeStyle=orthogonalEdgeStyle;rounded=0;orthogonalLoop=1;jettySize=auto;html=1;entryX=0.5;entryY=0;entryDx=0;entryDy=0;" parent="1" target="R2j_WGsKVn8EYMGW6Qm4-205" edge="1">
          <mxGeometry relative="1" as="geometry">
            <mxPoint x="950" y="650" as="targetPoint" />
            <mxPoint x="950" y="470" as="sourcePoint" />
          </mxGeometry>
        </mxCell>
        <mxCell id="R2j_WGsKVn8EYMGW6Qm4-198" style="edgeStyle=orthogonalEdgeStyle;rounded=0;orthogonalLoop=1;jettySize=auto;html=1;entryX=0.5;entryY=0;entryDx=0;entryDy=0;" parent="1" target="R2j_WGsKVn8EYMGW6Qm4-210" edge="1">
          <mxGeometry relative="1" as="geometry">
            <mxPoint x="1075" y="470" as="sourcePoint" />
          </mxGeometry>
        </mxCell>
        <mxCell id="R2j_WGsKVn8EYMGW6Qm4-199" value="&lt;font face=&quot;Lucida Console&quot; style=&quot;font-size: 32px;&quot;&gt;F&lt;/font&gt;" style="rounded=1;whiteSpace=wrap;html=1;" parent="1" vertex="1">
          <mxGeometry x="635" y="500" width="200" height="70" as="geometry" />
        </mxCell>
        <mxCell id="R2j_WGsKVn8EYMGW6Qm4-200" style="edgeStyle=orthogonalEdgeStyle;rounded=0;orthogonalLoop=1;jettySize=auto;html=1;startArrow=classic;startFill=1;endArrow=none;endFill=0;" parent="1" source="R2j_WGsKVn8EYMGW6Qm4-202" edge="1">
          <mxGeometry relative="1" as="geometry">
            <mxPoint x="675" y="570" as="targetPoint" />
          </mxGeometry>
        </mxCell>
        <mxCell id="R2j_WGsKVn8EYMGW6Qm4-201" style="edgeStyle=orthogonalEdgeStyle;rounded=0;orthogonalLoop=1;jettySize=auto;html=1;entryX=0;entryY=0.5;entryDx=0;entryDy=0;" parent="1" target="R2j_WGsKVn8EYMGW6Qm4-205" edge="1">
          <mxGeometry relative="1" as="geometry">
            <mxPoint x="675" y="640" as="sourcePoint" />
            <mxPoint x="870" y="700" as="targetPoint" />
            <Array as="points">
              <mxPoint x="675" y="700" />
            </Array>
          </mxGeometry>
        </mxCell>
        <mxCell id="R2j_WGsKVn8EYMGW6Qm4-202" value="" style="rounded=0;whiteSpace=wrap;html=1;fillColor=#ffcccc;strokeColor=#36393d;" parent="1" vertex="1">
          <mxGeometry x="635" y="600" width="80" height="40" as="geometry" />
        </mxCell>
        <mxCell id="R2j_WGsKVn8EYMGW6Qm4-203" style="edgeStyle=orthogonalEdgeStyle;rounded=0;orthogonalLoop=1;jettySize=auto;html=1;" parent="1" source="R2j_WGsKVn8EYMGW6Qm4-204" edge="1">
          <mxGeometry relative="1" as="geometry">
            <mxPoint x="1075" y="620" as="targetPoint" />
          </mxGeometry>
        </mxCell>
        <mxCell id="R2j_WGsKVn8EYMGW6Qm4-204" value="" style="rounded=0;whiteSpace=wrap;html=1;fillColor=#ffcccc;strokeColor=#36393d;" parent="1" vertex="1">
          <mxGeometry x="755" y="600" width="80" height="40" as="geometry" />
        </mxCell>
        <mxCell id="R2j_WGsKVn8EYMGW6Qm4-205" value="" style="rounded=0;whiteSpace=wrap;html=1;fillColor=#ffcccc;strokeColor=#36393d;" parent="1" vertex="1">
          <mxGeometry x="910" y="680" width="80" height="40" as="geometry" />
        </mxCell>
        <mxCell id="R2j_WGsKVn8EYMGW6Qm4-206" style="edgeStyle=orthogonalEdgeStyle;rounded=0;orthogonalLoop=1;jettySize=auto;html=1;" parent="1" source="R2j_WGsKVn8EYMGW6Qm4-207" edge="1">
          <mxGeometry relative="1" as="geometry">
            <mxPoint x="950" y="535" as="targetPoint" />
          </mxGeometry>
        </mxCell>
        <mxCell id="R2j_WGsKVn8EYMGW6Qm4-207" value="&lt;font style=&quot;font-size: 16px;&quot;&gt;&amp;nbsp;rk&lt;sub&gt;3&lt;/sub&gt;[0-7]&lt;/font&gt;" style="text;html=1;align=center;verticalAlign=middle;whiteSpace=wrap;rounded=0;fillColor=#ffff88;strokeColor=#36393d;" parent="1" vertex="1">
          <mxGeometry x="870" y="520" width="60" height="30" as="geometry" />
        </mxCell>
        <mxCell id="R2j_WGsKVn8EYMGW6Qm4-208" style="edgeStyle=orthogonalEdgeStyle;rounded=0;orthogonalLoop=1;jettySize=auto;html=1;" parent="1" source="R2j_WGsKVn8EYMGW6Qm4-209" edge="1">
          <mxGeometry relative="1" as="geometry">
            <mxPoint x="1075" y="535" as="targetPoint" />
          </mxGeometry>
        </mxCell>
        <mxCell id="R2j_WGsKVn8EYMGW6Qm4-209" value="&lt;font style=&quot;font-size: 16px;&quot;&gt;&amp;nbsp;rk&lt;sub&gt;3&lt;/sub&gt;[8-15]&lt;/font&gt;" style="text;html=1;align=center;verticalAlign=middle;whiteSpace=wrap;rounded=0;fillColor=#ffff88;strokeColor=#36393d;" parent="1" vertex="1">
          <mxGeometry x="980" y="520" width="75" height="30" as="geometry" />
        </mxCell>
        <mxCell id="R2j_WGsKVn8EYMGW6Qm4-210" value="" style="rounded=0;whiteSpace=wrap;html=1;fillColor=#ffcccc;strokeColor=#36393d;" parent="1" vertex="1">
          <mxGeometry x="1035" y="680" width="80" height="40" as="geometry" />
        </mxCell>
        <mxCell id="R2j_WGsKVn8EYMGW6Qm4-211" style="edgeStyle=orthogonalEdgeStyle;rounded=0;orthogonalLoop=1;jettySize=auto;html=1;startArrow=classic;startFill=1;endArrow=none;endFill=0;" parent="1" edge="1">
          <mxGeometry relative="1" as="geometry">
            <mxPoint x="794.58" y="570" as="targetPoint" />
            <mxPoint x="794.58" y="600" as="sourcePoint" />
          </mxGeometry>
        </mxCell>
        <mxCell id="63Y8fF8VDKOqFTsL-jOf-9" style="rounded=0;orthogonalLoop=1;jettySize=auto;html=1;exitX=0.5;exitY=0;exitDx=0;exitDy=0;dashed=1;endArrow=none;endFill=0;" edge="1" parent="1" source="63Y8fF8VDKOqFTsL-jOf-1">
          <mxGeometry relative="1" as="geometry">
            <mxPoint x="50" y="760" as="targetPoint" />
          </mxGeometry>
        </mxCell>
        <mxCell id="63Y8fF8VDKOqFTsL-jOf-1" value="" style="rounded=0;whiteSpace=wrap;html=1;fillColor=#ffff88;strokeColor=#36393d;" vertex="1" parent="1">
          <mxGeometry x="75" y="830" width="80" height="40" as="geometry" />
        </mxCell>
        <mxCell id="63Y8fF8VDKOqFTsL-jOf-11" style="edgeStyle=none;shape=connector;rounded=0;orthogonalLoop=1;jettySize=auto;html=1;exitX=0.5;exitY=0;exitDx=0;exitDy=0;dashed=1;strokeColor=default;align=center;verticalAlign=middle;fontFamily=Helvetica;fontSize=11;fontColor=default;labelBackgroundColor=default;endArrow=none;endFill=0;" edge="1" parent="1" source="63Y8fF8VDKOqFTsL-jOf-2">
          <mxGeometry relative="1" as="geometry">
            <mxPoint x="290" y="750" as="targetPoint" />
          </mxGeometry>
        </mxCell>
        <mxCell id="63Y8fF8VDKOqFTsL-jOf-2" value="" style="rounded=0;whiteSpace=wrap;html=1;fillColor=#ffcccc;strokeColor=#36393d;" vertex="1" parent="1">
          <mxGeometry x="195" y="830" width="80" height="40" as="geometry" />
        </mxCell>
        <mxCell id="63Y8fF8VDKOqFTsL-jOf-12" style="edgeStyle=none;shape=connector;rounded=0;orthogonalLoop=1;jettySize=auto;html=1;exitX=0.5;exitY=0;exitDx=0;exitDy=0;dashed=1;strokeColor=default;align=center;verticalAlign=middle;fontFamily=Helvetica;fontSize=11;fontColor=default;labelBackgroundColor=default;endArrow=none;endFill=0;" edge="1" parent="1" source="63Y8fF8VDKOqFTsL-jOf-3">
          <mxGeometry relative="1" as="geometry">
            <mxPoint x="390" y="760" as="targetPoint" />
          </mxGeometry>
        </mxCell>
        <mxCell id="63Y8fF8VDKOqFTsL-jOf-3" value="" style="rounded=0;whiteSpace=wrap;html=1;fillColor=#ffcccc;strokeColor=#36393d;" vertex="1" parent="1">
          <mxGeometry x="350" y="830" width="80" height="40" as="geometry" />
        </mxCell>
        <mxCell id="63Y8fF8VDKOqFTsL-jOf-13" style="edgeStyle=none;shape=connector;rounded=0;orthogonalLoop=1;jettySize=auto;html=1;exitX=0.5;exitY=0;exitDx=0;exitDy=0;dashed=1;strokeColor=default;align=center;verticalAlign=middle;fontFamily=Helvetica;fontSize=11;fontColor=default;labelBackgroundColor=default;endArrow=none;endFill=0;" edge="1" parent="1" source="63Y8fF8VDKOqFTsL-jOf-4">
          <mxGeometry relative="1" as="geometry">
            <mxPoint x="515" y="750" as="targetPoint" />
          </mxGeometry>
        </mxCell>
        <mxCell id="63Y8fF8VDKOqFTsL-jOf-4" value="" style="rounded=0;whiteSpace=wrap;html=1;fillColor=#ffcccc;strokeColor=#36393d;" vertex="1" parent="1">
          <mxGeometry x="475" y="830" width="80" height="40" as="geometry" />
        </mxCell>
        <mxCell id="63Y8fF8VDKOqFTsL-jOf-14" style="edgeStyle=none;shape=connector;rounded=0;orthogonalLoop=1;jettySize=auto;html=1;exitX=0.5;exitY=0;exitDx=0;exitDy=0;dashed=1;strokeColor=default;align=center;verticalAlign=middle;fontFamily=Helvetica;fontSize=11;fontColor=default;labelBackgroundColor=default;endArrow=none;endFill=0;" edge="1" parent="1" source="63Y8fF8VDKOqFTsL-jOf-5">
          <mxGeometry relative="1" as="geometry">
            <mxPoint x="610" y="760" as="targetPoint" />
          </mxGeometry>
        </mxCell>
        <mxCell id="63Y8fF8VDKOqFTsL-jOf-5" value="" style="rounded=0;whiteSpace=wrap;html=1;fillColor=#ffcccc;strokeColor=#36393d;" vertex="1" parent="1">
          <mxGeometry x="635" y="830" width="80" height="40" as="geometry" />
        </mxCell>
        <mxCell id="63Y8fF8VDKOqFTsL-jOf-15" style="edgeStyle=none;shape=connector;rounded=0;orthogonalLoop=1;jettySize=auto;html=1;exitX=0.5;exitY=0;exitDx=0;exitDy=0;dashed=1;strokeColor=default;align=center;verticalAlign=middle;fontFamily=Helvetica;fontSize=11;fontColor=default;labelBackgroundColor=default;endArrow=none;endFill=0;" edge="1" parent="1" source="63Y8fF8VDKOqFTsL-jOf-6">
          <mxGeometry relative="1" as="geometry">
            <mxPoint x="850" y="760" as="targetPoint" />
          </mxGeometry>
        </mxCell>
        <mxCell id="63Y8fF8VDKOqFTsL-jOf-6" value="" style="rounded=0;whiteSpace=wrap;html=1;fillColor=#ffcccc;strokeColor=#36393d;" vertex="1" parent="1">
          <mxGeometry x="755" y="830" width="80" height="40" as="geometry" />
        </mxCell>
        <mxCell id="63Y8fF8VDKOqFTsL-jOf-16" style="edgeStyle=none;shape=connector;rounded=0;orthogonalLoop=1;jettySize=auto;html=1;exitX=0.5;exitY=0;exitDx=0;exitDy=0;dashed=1;strokeColor=default;align=center;verticalAlign=middle;fontFamily=Helvetica;fontSize=11;fontColor=default;labelBackgroundColor=default;endArrow=none;endFill=0;" edge="1" parent="1" source="63Y8fF8VDKOqFTsL-jOf-7">
          <mxGeometry relative="1" as="geometry">
            <mxPoint x="950" y="760" as="targetPoint" />
          </mxGeometry>
        </mxCell>
        <mxCell id="63Y8fF8VDKOqFTsL-jOf-7" value="" style="rounded=0;whiteSpace=wrap;html=1;fillColor=#ffcccc;strokeColor=#36393d;" vertex="1" parent="1">
          <mxGeometry x="910" y="830" width="80" height="40" as="geometry" />
        </mxCell>
        <mxCell id="63Y8fF8VDKOqFTsL-jOf-17" style="edgeStyle=none;shape=connector;rounded=0;orthogonalLoop=1;jettySize=auto;html=1;exitX=0.5;exitY=0;exitDx=0;exitDy=0;dashed=1;strokeColor=default;align=center;verticalAlign=middle;fontFamily=Helvetica;fontSize=11;fontColor=default;labelBackgroundColor=default;endArrow=none;endFill=0;" edge="1" parent="1" source="63Y8fF8VDKOqFTsL-jOf-8">
          <mxGeometry relative="1" as="geometry">
            <mxPoint x="1075" y="760" as="targetPoint" />
          </mxGeometry>
        </mxCell>
        <mxCell id="63Y8fF8VDKOqFTsL-jOf-8" value="" style="rounded=0;whiteSpace=wrap;html=1;fillColor=#ffcccc;strokeColor=#36393d;" vertex="1" parent="1">
          <mxGeometry x="1035" y="830" width="80" height="40" as="geometry" />
        </mxCell>
      </root>
    </mxGraphModel>
  </diagram>
</mxfile>
